<!DOCTYPE svg PUBLIC "-//W3C//DTD SVG 1.1//EN" "http://www.w3.org/Graphics/SVG/1.1/DTD/svg11.dtd">
<!-- Uploaded to: SVG Repo, www.svgrepo.com, Transformed by: SVG Repo Mixer Tools -->
<svg fill="#000000" height="64px" width="64px" version="1.1" id="Capa_1" xmlns="http://www.w3.org/2000/svg" xmlns:xlink="http://www.w3.org/1999/xlink" viewBox="-30.09 -30.09 119.18 119.18" xml:space="preserve" stroke="#000000" stroke-width="0.236">
<g id="SVGRepo_bgCarrier" stroke-width="0">
<path transform="translate(-30.09, -30.09), scale(3.724375)" d="M16,28.583026120987007C17.830868823796262,28.618634276069056,19.728639511873876,28.87574668905872,21.417789726608028,28.1685549592421C23.114766674065784,27.45808643343343,24.21376878570517,25.86494392638087,25.53930769067889,24.58923122448876C26.94194797568252,23.239315336655817,28.807157117809567,22.205493025675054,29.502900705802304,20.387358395592383C30.200727105004407,18.56378091091065,29.395531343019993,16.54770153240277,29.3636260773863,14.595426300759863C29.329054820678593,12.480019741475397,30.72493872256737,9.886980760086884,29.30565554331077,8.317976190325096C27.743720856145238,6.591271683677026,24.48853601385912,8.269052178246804,22.518440530270475,7.028136304469191C20.7311487642206,5.902364106096698,20.85223120903891,2.869155009395298,19.011138543713653,1.8337069434336772C17.229559596168176,0.8317299596907062,14.799948736000836,0.7790226695611683,12.949004391264474,1.64619419525628C11.059725154144123,2.5313257029522083,10.442146697289722,4.898219151825796,9.085978825407297,6.483666257535733C8.010389527057775,7.741099039536241,6.877944363924648,8.875600935439655,5.7386233691611945,10.075591439929074C4.320567935323955,11.569159155494262,2.1823655636028607,12.533302560356931,1.49794044645577,14.475772120847425C0.8168940199590946,16.40865260639265,0.7188524177436455,18.976926224171187,2.054638683263704,20.531122562892076C3.5613876621782516,22.284235172931307,6.811972094045963,21.187170029114377,8.563139669357573,22.696179118588606C10.011068757715533,23.94388275703537,9.176579421198925,26.773326797757168,10.675231719774413,27.95962536990535C12.091897276731473,29.08102512956082,14.193554766049429,28.54789297479887,16,28.583026120987007" fill="#ff0000" strokewidth="0"/>
</g>
<g id="SVGRepo_tracerCarrier" stroke-linecap="round" stroke-linejoin="round"/>
<g id="SVGRepo_iconCarrier"> <g> <path d="M49,25.962H35.144H6c-0.552,0-1,0.447-1,1s0.448,1,1,1h28.651l6.628,8.61c0.189,0.245,0.482,0.39,0.792,0.39 s0.603-0.145,0.792-0.39l6.628-8.61H53c0.552,0,1-0.447,1-1s-0.448-1-1-1H49z"/> <path d="M5.627,23.962h47.745c0.305,0,0.592-0.139,0.782-0.377s0.261-0.55,0.192-0.847C51.674,11.094,41.457,2.962,29.5,2.962 S7.326,11.094,4.653,22.738c-0.068,0.297,0.002,0.608,0.192,0.847S5.323,23.962,5.627,23.962z M41.168,14.407 c0.306-0.46,0.926-0.584,1.387-0.277l3,2c0.459,0.307,0.583,0.927,0.277,1.387c-0.193,0.289-0.51,0.445-0.833,0.445 c-0.19,0-0.383-0.055-0.554-0.168l-3-2C40.986,15.487,40.862,14.867,41.168,14.407z M35.105,17.515l1-2 c0.247-0.494,0.846-0.693,1.342-0.447c0.494,0.247,0.694,0.848,0.447,1.342l-1,2c-0.175,0.351-0.528,0.553-0.896,0.553 c-0.15,0-0.303-0.034-0.446-0.105C35.059,18.609,34.858,18.009,35.105,17.515z M32.553,10.067c0.495-0.245,1.095-0.046,1.342,0.447 l1,2c0.247,0.494,0.047,1.095-0.447,1.342c-0.144,0.071-0.296,0.105-0.446,0.105c-0.367,0-0.72-0.202-0.896-0.553l-1-2 C31.858,10.915,32.059,10.314,32.553,10.067z M26.105,9.515l1-2c0.247-0.493,0.847-0.692,1.342-0.447 c0.494,0.247,0.694,0.848,0.447,1.342l-1,2c-0.175,0.351-0.528,0.553-0.896,0.553c-0.15,0-0.303-0.034-0.446-0.105 C26.059,10.609,25.858,10.009,26.105,9.515z M25.105,18.515l1-2c0.247-0.493,0.846-0.693,1.342-0.447 c0.494,0.247,0.694,0.848,0.447,1.342l-1,2c-0.175,0.351-0.528,0.553-0.896,0.553c-0.15,0-0.303-0.034-0.446-0.105 C25.059,19.609,24.858,19.009,25.105,18.515z M19.553,12.067c0.495-0.246,1.095-0.047,1.342,0.447l1,2 c0.247,0.494,0.047,1.095-0.447,1.342c-0.144,0.071-0.296,0.105-0.446,0.105c-0.367,0-0.72-0.202-0.896-0.553l-1-2 C18.858,12.915,19.059,12.314,19.553,12.067z M14.105,18.515l1-2c0.247-0.493,0.846-0.693,1.342-0.447 c0.494,0.247,0.694,0.848,0.447,1.342l-1,2c-0.175,0.351-0.528,0.553-0.896,0.553c-0.15,0-0.303-0.034-0.446-0.105 C14.059,19.609,13.858,19.009,14.105,18.515z"/> <path d="M52.973,41.962H6c-0.321,0-0.623,0.154-0.811,0.414c-0.188,0.261-0.24,0.596-0.139,0.9l2.524,7.619 c1.018,3.076,3.88,5.143,7.121,5.143h29.6c3.247,0,6.11-2.072,7.125-5.157l2.503-7.606c0.101-0.305,0.048-0.639-0.14-0.898 S53.294,41.962,52.973,41.962z M18.832,49.517c-0.193,0.289-0.51,0.445-0.833,0.445c-0.19,0-0.383-0.055-0.554-0.168l-3-2 c-0.459-0.307-0.583-0.927-0.277-1.387c0.307-0.46,0.926-0.584,1.387-0.277l3,2C19.014,48.437,19.138,49.057,18.832,49.517z M24.895,47.409l-1,2c-0.175,0.351-0.528,0.553-0.896,0.553c-0.15,0-0.303-0.034-0.446-0.105c-0.494-0.247-0.694-0.848-0.447-1.342 l1-2c0.247-0.494,0.846-0.693,1.342-0.447C24.941,46.314,25.142,46.915,24.895,47.409z M29.447,52.856 c-0.144,0.071-0.296,0.105-0.446,0.105c-0.367,0-0.72-0.202-0.896-0.553l-1-2c-0.247-0.494-0.047-1.095,0.447-1.342 c0.496-0.246,1.095-0.047,1.342,0.447l1,2C30.142,52.009,29.941,52.609,29.447,52.856z M34.895,46.409l-1,2 c-0.175,0.351-0.528,0.553-0.896,0.553c-0.15,0-0.303-0.034-0.446-0.105c-0.494-0.247-0.694-0.848-0.447-1.342l1-2 c0.247-0.493,0.846-0.692,1.342-0.447C34.941,45.314,35.142,45.915,34.895,46.409z M40.447,51.856 c-0.144,0.071-0.296,0.105-0.446,0.105c-0.367,0-0.72-0.202-0.896-0.553l-1-2c-0.247-0.494-0.047-1.095,0.447-1.342 c0.496-0.245,1.094-0.046,1.342,0.447l1,2C41.142,51.009,40.941,51.609,40.447,51.856z M45.895,46.409l-1,2 c-0.175,0.351-0.528,0.553-0.896,0.553c-0.15,0-0.303-0.034-0.446-0.105c-0.494-0.247-0.694-0.848-0.447-1.342l1-2 c0.247-0.493,0.847-0.692,1.342-0.447C45.941,45.314,46.142,45.915,45.895,46.409z"/> <path d="M54,29.962h-3.523l-6.028,7.83c-0.567,0.733-1.455,1.17-2.377,1.17s-1.811-0.437-2.375-1.167l-6.03-7.833H5 c-2.757,0-5,2.243-5,5s2.243,5,5,5h49c2.757,0,5-2.243,5-5S56.757,29.962,54,29.962z M35.707,35.669 c-0.59,0.59-1.374,0.915-2.207,0.915s-1.617-0.325-2.207-0.915c-0.438-0.438-1.148-0.438-1.586,0c-1.217,1.217-3.197,1.217-4.414,0 c-0.425-0.424-1.161-0.424-1.586,0c-1.217,1.217-3.197,1.217-4.414,0c-0.425-0.424-1.161-0.424-1.586,0 c-1.217,1.217-3.197,1.217-4.414,0c-0.438-0.438-1.148-0.438-1.586,0c-1.217,1.217-3.197,1.217-4.414,0 c-0.438-0.438-1.148-0.438-1.586,0c-0.391,0.391-1.023,0.391-1.414,0s-0.391-1.023,0-1.414c1.18-1.18,3.234-1.18,4.414,0 c0.438,0.438,1.148,0.438,1.586,0c1.217-1.217,3.197-1.217,4.414,0c0.425,0.424,1.161,0.424,1.586,0 c1.217-1.217,3.197-1.217,4.414,0c0.425,0.424,1.161,0.424,1.586,0c1.217-1.217,3.197-1.217,4.414,0 c0.438,0.438,1.148,0.438,1.586,0c1.217-1.217,3.197-1.217,4.414,0c0.438,0.438,1.148,0.438,1.586,0 c0.391-0.391,1.023-0.391,1.414,0S36.098,35.278,35.707,35.669z M54.707,35.669c-0.608,0.608-1.408,0.913-2.207,0.913 s-1.599-0.305-2.207-0.913c-0.425-0.424-1.161-0.424-1.586,0c-0.391,0.391-1.023,0.391-1.414,0s-0.391-1.023,0-1.414 c1.217-1.217,3.197-1.217,4.414,0c0.425,0.424,1.161,0.424,1.586,0c0.391-0.391,1.023-0.391,1.414,0S55.098,35.278,54.707,35.669z"/> </g> </g>
</svg>