<!DOCTYPE svg PUBLIC "-//W3C//DTD SVG 1.1//EN" "http://www.w3.org/Graphics/SVG/1.1/DTD/svg11.dtd">
<!-- Uploaded to: SVG Repo, www.svgrepo.com, Transformed by: SVG Repo Mixer Tools -->
<svg height="164px" width="164px" version="1.1" id="Layer_1" xmlns="http://www.w3.org/2000/svg" xmlns:xlink="http://www.w3.org/1999/xlink" viewBox="0 0 512.00 512.00" xml:space="preserve" fill="#000000" stroke="#000000" stroke-width="0.00512">
<g id="SVGRepo_bgCarrier" stroke-width="0"/>
<g id="SVGRepo_tracerCarrier" stroke-linecap="round" stroke-linejoin="round" stroke="#CCCCCC" stroke-width="3.072"/>
<g id="SVGRepo_iconCarrier"> <path style="fill:#D8C478;" d="M89.237,228.113H16.732C7.491,228.113,0,235.605,0,244.845v155.05 c0,9.241,7.491,16.732,16.732,16.732h72.505c9.241,0,16.732-7.491,16.732-16.732v-155.05 C105.969,235.605,98.478,228.113,89.237,228.113z"/> <path style="fill:#ffe16b;" d="M224.581,161.185h-72.505c-9.241,0-16.732,7.491-16.732,16.732v221.978 c0,9.241,7.491,16.732,16.732,16.732h72.505c9.241,0,16.732-7.491,16.732-16.732V177.917 C241.313,168.677,233.822,161.185,224.581,161.185z"/> <path style="fill:#D3CEBA;" d="M376.657,110.989c0-9.241-7.491-16.732-16.732-16.732h-72.505c-9.241,0-16.732,7.491-16.732,16.732 v288.906c0,9.241,7.491,16.732,16.732,16.732h72.505c9.241,0,16.732-7.491,16.732-16.732V110.989z"/> <path style="fill:#E0B000;" d="M512,44.061c0-9.241-7.492-16.732-16.732-16.732h-72.505c-9.241,0-16.732,7.491-16.732,16.732 v355.834c0,9.241,7.491,16.732,16.732,16.732h72.505c9.241,0,16.732-7.491,16.732-16.732V44.061z"/> <path style="fill:#ffae00;" d="M512,467.939c0-9.241-7.492-16.732-16.732-16.732H16.732C7.491,451.207,0,458.698,0,467.939 s7.491,16.732,16.732,16.732h478.536C504.508,484.671,512,477.18,512,467.939z"/> <path style="fill:#D8C478;" d="M89.237,228.113H52.985v188.514h36.253c9.241,0,16.732-7.491,16.732-16.732v-155.05 C105.969,235.605,98.478,228.113,89.237,228.113z"/> <path style="fill:#ffe16b;" d="M224.581,161.185h-36.253v255.442h36.253c9.241,0,16.732-7.491,16.732-16.732V177.917 C241.313,168.677,233.822,161.185,224.581,161.185z"/> <path style="fill:#D3CEBA;" d="M376.657,110.989c0-9.241-7.491-16.732-16.732-16.732h-36.253v322.37h36.253 c9.241,0,16.732-7.491,16.732-16.732V110.989z"/> <path style="fill:#E0B000;" d="M512,44.061c0-9.241-7.492-16.732-16.732-16.732h-36.253v389.298h36.253 c9.241,0,16.732-7.491,16.732-16.732V44.061z"/> </g>
</svg>